<svg width="308" height="45" viewBox="0 0 308 45" fill="none" xmlns="http://www.w3.org/2000/svg">
<path d="M55.005 36.28C54.2817 36.28 53.71 36.0817 53.29 35.685C52.8933 35.265 52.695 34.67 52.695 33.9V13.705C52.695 12.935 52.8933 12.3517 53.29 11.955C53.71 11.535 54.305 11.325 55.075 11.325H67.29C67.8967 11.325 68.3517 11.4767 68.655 11.78C68.9583 12.0833 69.11 12.515 69.11 13.075C69.11 13.6583 68.9583 14.1133 68.655 14.44C68.3517 14.7433 67.8967 14.895 67.29 14.895H57.175V21.86H66.555C67.1383 21.86 67.5817 22.0117 67.885 22.315C68.2117 22.6183 68.375 23.05 68.375 23.61C68.375 24.1933 68.2117 24.6483 67.885 24.975C67.5817 25.2783 67.1383 25.43 66.555 25.43H57.175V33.9C57.175 35.4867 56.4517 36.28 55.005 36.28ZM75.4997 36.245C74.7997 36.245 74.263 36.035 73.8897 35.615C73.5164 35.195 73.3297 34.6117 73.3297 33.865V21.02C73.3297 20.25 73.5164 19.6667 73.8897 19.27C74.263 18.85 74.7997 18.64 75.4997 18.64C76.1997 18.64 76.7364 18.85 77.1097 19.27C77.5064 19.6667 77.7047 20.25 77.7047 21.02V33.865C77.7047 34.6117 77.518 35.195 77.1447 35.615C76.7714 36.035 76.223 36.245 75.4997 36.245ZM75.4997 15.385C74.683 15.385 74.0414 15.1867 73.5747 14.79C73.1314 14.37 72.9097 13.7983 72.9097 13.075C72.9097 12.3283 73.1314 11.7567 73.5747 11.36C74.0414 10.9633 74.683 10.765 75.4997 10.765C76.3397 10.765 76.9814 10.9633 77.4247 11.36C77.868 11.7567 78.0897 12.3283 78.0897 13.075C78.0897 13.7983 77.868 14.37 77.4247 14.79C76.9814 15.1867 76.3397 15.385 75.4997 15.385ZM84.4206 36.28C83.7206 36.28 83.1839 36.0933 82.8106 35.72C82.4373 35.3233 82.2506 34.7633 82.2506 34.04V20.81C82.2506 20.0867 82.4373 19.5383 82.8106 19.165C83.1839 18.7917 83.7089 18.605 84.3856 18.605C85.0623 18.605 85.5873 18.7917 85.9606 19.165C86.3339 19.5383 86.5206 20.0867 86.5206 20.81V23.19L86.1356 22.315C86.6489 21.0783 87.4423 20.145 88.5156 19.515C89.6123 18.8617 90.8489 18.535 92.2256 18.535C93.6023 18.535 94.7339 18.7917 95.6206 19.305C96.5073 19.8183 97.1723 20.6 97.6156 21.65C98.0589 22.6767 98.2806 23.9833 98.2806 25.57V34.04C98.2806 34.7633 98.0939 35.3233 97.7206 35.72C97.3473 36.0933 96.8106 36.28 96.1106 36.28C95.4106 36.28 94.8623 36.0933 94.4656 35.72C94.0923 35.3233 93.9056 34.7633 93.9056 34.04V25.78C93.9056 24.45 93.6489 23.4817 93.1356 22.875C92.6456 22.2683 91.8756 21.965 90.8256 21.965C89.5423 21.965 88.5156 22.3733 87.7456 23.19C86.9989 23.9833 86.6256 25.045 86.6256 26.375V34.04C86.6256 35.5333 85.8906 36.28 84.4206 36.28ZM110.634 36.35C108.838 36.35 107.274 35.9883 105.944 35.265C104.614 34.5183 103.588 33.4683 102.864 32.115C102.141 30.7617 101.779 29.175 101.779 27.355C101.779 25.9783 101.978 24.7533 102.374 23.68C102.794 22.5833 103.389 21.6617 104.159 20.915C104.929 20.145 105.863 19.5617 106.959 19.165C108.056 18.745 109.281 18.535 110.634 18.535C111.404 18.535 112.233 18.64 113.119 18.85C114.029 19.06 114.881 19.41 115.674 19.9C116.048 20.1333 116.293 20.4133 116.409 20.74C116.526 21.0667 116.549 21.405 116.479 21.755C116.409 22.0817 116.258 22.3733 116.024 22.63C115.814 22.8633 115.546 23.015 115.219 23.085C114.893 23.1317 114.531 23.05 114.134 22.84C113.621 22.5367 113.096 22.315 112.559 22.175C112.023 22.0117 111.509 21.93 111.019 21.93C110.249 21.93 109.573 22.0583 108.989 22.315C108.406 22.5483 107.904 22.8983 107.484 23.365C107.088 23.8083 106.784 24.3683 106.574 25.045C106.364 25.7217 106.259 26.5033 106.259 27.39C106.259 29.1167 106.668 30.4817 107.484 31.485C108.324 32.465 109.503 32.955 111.019 32.955C111.509 32.955 112.011 32.885 112.524 32.745C113.061 32.605 113.598 32.3833 114.134 32.08C114.531 31.87 114.881 31.8 115.184 31.87C115.511 31.94 115.779 32.1033 115.989 32.36C116.199 32.5933 116.328 32.885 116.374 33.235C116.421 33.5617 116.374 33.8883 116.234 34.215C116.118 34.5417 115.884 34.81 115.534 35.02C114.764 35.4867 113.948 35.825 113.084 36.035C112.221 36.245 111.404 36.35 110.634 36.35ZM123.846 42.58C123.333 42.58 122.913 42.44 122.586 42.16C122.26 41.9033 122.061 41.5533 121.991 41.11C121.945 40.6667 122.026 40.2 122.236 39.71L124.616 34.425V36.245L118.246 21.51C118.036 20.9967 117.966 20.5183 118.036 20.075C118.106 19.6317 118.316 19.2817 118.666 19.025C119.04 18.745 119.541 18.605 120.171 18.605C120.708 18.605 121.14 18.7333 121.466 18.99C121.793 19.2233 122.085 19.6783 122.341 20.355L127.066 32.15H126.016L130.846 20.32C131.103 19.6667 131.406 19.2233 131.756 18.99C132.106 18.7333 132.573 18.605 133.156 18.605C133.67 18.605 134.078 18.745 134.381 19.025C134.685 19.2817 134.871 19.6317 134.941 20.075C135.011 20.495 134.93 20.9617 134.696 21.475L126.191 40.9C125.888 41.5533 125.561 41.9967 125.211 42.23C124.861 42.4633 124.406 42.58 123.846 42.58ZM149.829 36.35C147.263 36.35 145.058 35.8367 143.214 34.81C141.394 33.76 139.994 32.29 139.014 30.4C138.034 28.4867 137.544 26.235 137.544 23.645C137.544 21.7083 137.824 19.97 138.384 18.43C138.944 16.8667 139.749 15.5367 140.799 14.44C141.849 13.32 143.133 12.4683 144.649 11.885C146.189 11.2783 147.916 10.975 149.829 10.975C151.113 10.975 152.373 11.1383 153.609 11.465C154.846 11.7917 155.931 12.2583 156.864 12.865C157.354 13.1683 157.681 13.5417 157.844 13.985C158.008 14.405 158.043 14.825 157.949 15.245C157.856 15.6417 157.658 15.98 157.354 16.26C157.074 16.54 156.713 16.7033 156.269 16.75C155.849 16.7733 155.383 16.6217 154.869 16.295C154.146 15.8283 153.364 15.49 152.524 15.28C151.684 15.07 150.833 14.965 149.969 14.965C148.313 14.965 146.913 15.3033 145.769 15.98C144.626 16.6567 143.763 17.6367 143.179 18.92C142.596 20.2033 142.304 21.7783 142.304 23.645C142.304 25.4883 142.596 27.0633 143.179 28.37C143.763 29.6767 144.626 30.6683 145.769 31.345C146.913 32.0217 148.313 32.36 149.969 32.36C150.856 32.36 151.731 32.255 152.594 32.045C153.458 31.8117 154.274 31.4617 155.044 30.995C155.558 30.6917 156.013 30.5633 156.409 30.61C156.829 30.6333 157.179 30.7733 157.459 31.03C157.739 31.2867 157.926 31.6133 158.019 32.01C158.113 32.3833 158.089 32.78 157.949 33.2C157.809 33.5967 157.529 33.9467 157.109 34.25C156.176 34.9267 155.056 35.4517 153.749 35.825C152.466 36.175 151.159 36.35 149.829 36.35ZM168.293 36.35C166.52 36.35 164.98 35.9883 163.673 35.265C162.366 34.5417 161.351 33.515 160.628 32.185C159.905 30.8317 159.543 29.245 159.543 27.425C159.543 26.0483 159.741 24.8233 160.138 23.75C160.558 22.6533 161.153 21.72 161.923 20.95C162.693 20.1567 163.615 19.5617 164.688 19.165C165.761 18.745 166.963 18.535 168.293 18.535C170.066 18.535 171.606 18.8967 172.913 19.62C174.22 20.3433 175.235 21.37 175.958 22.7C176.681 24.03 177.043 25.605 177.043 27.425C177.043 28.8017 176.833 30.0383 176.413 31.135C176.016 32.2317 175.433 33.1767 174.663 33.97C173.893 34.74 172.971 35.335 171.898 35.755C170.825 36.1517 169.623 36.35 168.293 36.35ZM168.293 33.025C169.156 33.025 169.915 32.815 170.568 32.395C171.221 31.975 171.723 31.3567 172.073 30.54C172.446 29.7 172.633 28.6617 172.633 27.425C172.633 25.5583 172.236 24.17 171.443 23.26C170.65 22.3267 169.6 21.86 168.293 21.86C167.43 21.86 166.671 22.07 166.018 22.49C165.365 22.8867 164.851 23.505 164.478 24.345C164.128 25.1617 163.953 26.1883 163.953 27.425C163.953 29.2683 164.35 30.6683 165.143 31.625C165.936 32.5583 166.986 33.025 168.293 33.025ZM182.824 36.28C182.124 36.28 181.587 36.0933 181.214 35.72C180.841 35.3233 180.654 34.7633 180.654 34.04V20.81C180.654 20.0867 180.841 19.5383 181.214 19.165C181.587 18.7917 182.112 18.605 182.789 18.605C183.466 18.605 183.991 18.7917 184.364 19.165C184.737 19.5383 184.924 20.0867 184.924 20.81V23.19L184.539 22.315C185.052 21.0783 185.846 20.145 186.919 19.515C188.016 18.8617 189.252 18.535 190.629 18.535C192.006 18.535 193.137 18.7917 194.024 19.305C194.911 19.8183 195.576 20.6 196.019 21.65C196.462 22.6767 196.684 23.9833 196.684 25.57V34.04C196.684 34.7633 196.497 35.3233 196.124 35.72C195.751 36.0933 195.214 36.28 194.514 36.28C193.814 36.28 193.266 36.0933 192.869 35.72C192.496 35.3233 192.309 34.7633 192.309 34.04V25.78C192.309 24.45 192.052 23.4817 191.539 22.875C191.049 22.2683 190.279 21.965 189.229 21.965C187.946 21.965 186.919 22.3733 186.149 23.19C185.402 23.9833 185.029 25.045 185.029 26.375V34.04C185.029 35.5333 184.294 36.28 182.824 36.28ZM208.968 36.35C207.451 36.35 206.179 36.0933 205.153 35.58C204.149 35.0667 203.403 34.32 202.913 33.34C202.423 32.3367 202.178 31.1 202.178 29.63V22.175H200.358C199.798 22.175 199.366 22.035 199.063 21.755C198.759 21.4517 198.608 21.0433 198.608 20.53C198.608 19.9933 198.759 19.585 199.063 19.305C199.366 19.025 199.798 18.885 200.358 18.885H202.178V15.7C202.178 14.9767 202.364 14.4283 202.738 14.055C203.134 13.6817 203.683 13.495 204.383 13.495C205.083 13.495 205.619 13.6817 205.993 14.055C206.366 14.4283 206.553 14.9767 206.553 15.7V18.885H210.263C210.823 18.885 211.254 19.025 211.558 19.305C211.861 19.585 212.013 19.9933 212.013 20.53C212.013 21.0433 211.861 21.4517 211.558 21.755C211.254 22.035 210.823 22.175 210.263 22.175H206.553V29.385C206.553 30.505 206.798 31.345 207.288 31.905C207.778 32.465 208.571 32.745 209.668 32.745C210.064 32.745 210.414 32.71 210.718 32.64C211.021 32.57 211.289 32.5233 211.523 32.5C211.803 32.4767 212.036 32.57 212.223 32.78C212.409 32.9667 212.503 33.3633 212.503 33.97C212.503 34.4367 212.421 34.8567 212.258 35.23C212.118 35.58 211.849 35.825 211.453 35.965C211.149 36.0583 210.753 36.14 210.263 36.21C209.773 36.3033 209.341 36.35 208.968 36.35ZM216.8 36.28C216.077 36.28 215.517 36.0933 215.12 35.72C214.747 35.3233 214.56 34.7633 214.56 34.04V20.81C214.56 20.0867 214.747 19.5383 215.12 19.165C215.493 18.7917 216.018 18.605 216.695 18.605C217.372 18.605 217.897 18.7917 218.27 19.165C218.643 19.5383 218.83 20.0867 218.83 20.81V23.015H218.48C218.807 21.615 219.448 20.5533 220.405 19.83C221.362 19.1067 222.633 18.675 224.22 18.535C224.71 18.4883 225.095 18.6167 225.375 18.92C225.678 19.2 225.853 19.6433 225.9 20.25C225.947 20.8333 225.807 21.3117 225.48 21.685C225.177 22.035 224.71 22.245 224.08 22.315L223.31 22.385C221.887 22.525 220.813 22.9683 220.09 23.715C219.367 24.4383 219.005 25.465 219.005 26.795V34.04C219.005 34.7633 218.818 35.3233 218.445 35.72C218.072 36.0933 217.523 36.28 216.8 36.28ZM235.798 36.35C234.024 36.35 232.484 35.9883 231.178 35.265C229.871 34.5417 228.856 33.515 228.133 32.185C227.409 30.8317 227.048 29.245 227.048 27.425C227.048 26.0483 227.246 24.8233 227.643 23.75C228.063 22.6533 228.658 21.72 229.428 20.95C230.198 20.1567 231.119 19.5617 232.193 19.165C233.266 18.745 234.468 18.535 235.798 18.535C237.571 18.535 239.111 18.8967 240.418 19.62C241.724 20.3433 242.739 21.37 243.463 22.7C244.186 24.03 244.548 25.605 244.548 27.425C244.548 28.8017 244.338 30.0383 243.918 31.135C243.521 32.2317 242.938 33.1767 242.168 33.97C241.398 34.74 240.476 35.335 239.403 35.755C238.329 36.1517 237.128 36.35 235.798 36.35ZM235.798 33.025C236.661 33.025 237.419 32.815 238.073 32.395C238.726 31.975 239.228 31.3567 239.578 30.54C239.951 29.7 240.138 28.6617 240.138 27.425C240.138 25.5583 239.741 24.17 238.948 23.26C238.154 22.3267 237.104 21.86 235.798 21.86C234.934 21.86 234.176 22.07 233.523 22.49C232.869 22.8867 232.356 23.505 231.983 24.345C231.633 25.1617 231.458 26.1883 231.458 27.425C231.458 29.2683 231.854 30.6683 232.648 31.625C233.441 32.5583 234.491 33.025 235.798 33.025ZM254.004 36.35C252.067 36.35 250.609 35.8017 249.629 34.705C248.649 33.585 248.159 31.9517 248.159 29.805V13.25C248.159 12.5267 248.345 11.9783 248.719 11.605C249.092 11.2317 249.629 11.045 250.329 11.045C251.029 11.045 251.565 11.2317 251.939 11.605C252.335 11.9783 252.534 12.5267 252.534 13.25V29.595C252.534 30.6683 252.755 31.4617 253.199 31.975C253.665 32.4883 254.319 32.745 255.159 32.745C255.345 32.745 255.52 32.745 255.684 32.745C255.847 32.7217 256.01 32.6983 256.174 32.675C256.5 32.6283 256.722 32.7217 256.839 32.955C256.955 33.165 257.014 33.6083 257.014 34.285C257.014 34.8683 256.897 35.3233 256.664 35.65C256.43 35.9767 256.045 36.175 255.509 36.245C255.275 36.2683 255.03 36.2917 254.774 36.315C254.517 36.3383 254.26 36.35 254.004 36.35Z" fill="white"/>
<path d="M24.8085 15.4264C28.3329 16.0932 31.5923 13.3842 31.5815 9.79734C31.572 6.64304 29.0072 4.09368 25.8529 4.10318L9.65495 4.152L19.9249 13.1224C21.2455 14.2759 22.8502 15.0559 24.5731 15.3819L24.8085 15.4264Z" fill="#5C5B5B"/>
<path d="M6.78998 15.4719C3.26761 16.1493 0 13.4502 0 9.86332C0 6.709 2.55708 4.15192 5.7114 4.15192L21.9095 4.15192L11.6666 13.1532C10.3495 14.3107 8.74715 15.0956 7.02522 15.4267L6.78998 15.4719Z" fill="#0FFE87"/>
<path d="M33.6984 38.2987C33.1953 41.8334 35.9423 44.9873 39.5117 44.973C42.7473 44.96 45.3643 42.3265 45.3569 39.091L45.3042 15.8316L36.3122 29.5134C35.1663 31.2569 34.4197 33.2316 34.1259 35.296L33.6984 38.2987Z" fill="#5C5B5B"/>
<path d="M33.6478 9.69751C33.1366 6.16484 35.8765 3 39.4459 3C42.6815 3 45.3045 5.62295 45.3045 8.85853V32.118L36.2815 18.4723C35.1317 16.7334 34.3806 14.7617 34.082 12.6985L33.6478 9.69751Z" fill="#7D61F2"/>
<path d="M24.8085 30.2803C28.3329 30.947 31.5923 28.2381 31.5815 24.6512C31.572 21.4969 29.0072 18.9475 25.8529 18.957L9.65495 19.0058L19.9249 27.9762C21.2455 29.1297 22.8502 29.9098 24.5731 30.2357L24.8085 30.2803Z" fill="#5C5B5B"/>
<path d="M6.78998 30.3258C3.26761 31.0031 0 28.3041 0 24.7171C0 21.5628 2.55708 19.0057 5.7114 19.0057L21.9095 19.0057L11.6666 28.007C10.3495 29.1645 8.74715 29.9494 7.02522 30.2805L6.78998 30.3258Z" fill="#0FFE87"/>
</svg>
